name analog
datacolumns 19
datarows 31
range 0.4365 0.4515
endheader
time	ground_force_vx	ground_force_vy	ground_force_vz	ground_force_px	ground_force_py	ground_force_pz	l_ground_force_vx	l_ground_force_vy	l_ground_force_vz	l_ground_force_px	l_ground_force_py	l_ground_force_pz	ground_torque_x	ground_torque_y	ground_torque_z	l_ground_torque_x	l_ground_torque_y	l_ground_torque_z
0.4365	-0.0	-0.0	-0.0	54.78671646118164	102.9235382080078	-640.3493041992188	24.56339454650879	-129.32119750976562	-749.3805541992188	-36.31660461425781	14.250181198120115	75.28543853759766	-0.0	-0.0	-0.0	77271.8046875	-27807.01953125	-192.1583404541016
0.437	-0.0	-0.0	-0.0	37.2161979675293	100.14263153076172	-621.86474609375	11.518893241882324	-130.212646484375	-707.4258422851562	-36.40141296386719	14.652351379394531	76.27802276611328	-0.0	-0.0	-0.0	71612.15625	-22652.359375	-2389.474853515625
0.4375	-0.0	-0.0	-0.0	24.08135032653809	94.42652130126952	-609.1874389648438	1.7405738830566406	-126.46449279785156	-675.5241088867188	-36.04923248291016	14.972330093383787	75.04290771484375	-0.0	-0.0	-0.0	67970.140625	-18592.009765625	-4185.8935546875
0.438	-0.0	-0.0	-0.0	16.902318954467773	90.34380340576172	-597.410888671875	-4.698383808135986	-118.71743774414062	-655.9006958007812	-36.04025268554688	15.834450721740724	74.76786041259766	-0.0	-0.0	-0.0	65688.515625	-16125.0400390625	-5794.5458984375
0.4385	-0.0	-0.0	-0.0	12.093510627746582	86.89034271240234	-586.109375	-9.877602577209473	-108.94139099121094	-647.2196044921875	-36.14492416381836	16.175153732299805	75.8056640625	-0.0	-0.0	-0.0	65216.71484375	-14491.9111328125	-7359.9970703125
0.439	-0.0	-0.0	-0.0	8.707738876342773	86.27822875976562	-572.811767578125	-12.558025360107422	-98.66978454589844	-641.6801147460938	-35.68556213378906	15.928833961486816	76.11180114746094	-0.0	-0.0	-0.0	64997.7421875	-13931.2158203125	-8597.53515625
0.4395	-0.0	-0.0	-0.0	4.693836212158203	88.56454467773438	-566.7305908203125	-13.441614151000977	-91.30158996582033	-638.6589965820312	-35.383033752441406	16.019033432006836	76.38481140136719	-0.0	-0.0	-0.0	65630.078125	-13591.3896484375	-9730.314453125
0.44	-0.0	-0.0	-0.0	-1.3494998216629028	93.90098571777344	-569.3709106445312	-12.924856185913086	-87.18492889404297	-639.6614379882812	-35.35176086425781	15.992199897766112	74.48108673095703	-0.0	-0.0	-0.0	66229.7421875	-13350.1064453125	-10315.7578125
0.4405	-0.0	-0.0	-0.0	-5.751848220825195	102.33283996582033	-572.7166137695312	-11.32400894165039	-88.13667297363281	-645.04931640625	-35.01442337036133	15.850448608398438	75.33150482177734	-0.0	-0.0	-0.0	66731.421875	-13619.4052734375	-10588.02734375
0.441	-0.0	-0.0	-0.0	-8.44369888305664	110.44351959228516	-577.597900390625	-12.67678165435791	-93.69165802001952	-650.9407958984375	-35.07271194458008	15.585594177246094	74.46360778808594	-0.0	-0.0	-0.0	67318.5703125	-13586.5712890625	-10929.1640625
0.4415	-0.0	-0.0	-0.0	-7.944564342498779	117.74727630615234	-586.1354370117188	-16.772743225097656	-100.80965423583984	-660.53369140625	-35.594207763671875	16.162824630737305	76.28031158447266	-0.0	-0.0	-0.0	68748.8515625	-14070.931640625	-10970.1123046875
0.442	-0.0	-0.0	-0.0	-6.8164777755737305	124.11209869384766	-592.4494018554688	-19.219070434570312	-106.01346588134766	-675.5092163085938	-35.33609771728516	15.855937957763672	76.89949035644531	-0.0	-0.0	-0.0	70398.7890625	-14606.43359375	-11133.34375
0.4425	-0.0	-0.0	-0.0	-4.64423131942749	127.3778076171875	-602.6287841796875	-17.60100555419922	-108.9634017944336	-692.8199462890625	-35.236385345458984	16.242328643798828	76.77445983886719	-0.0	-0.0	-0.0	72531.375	-16089.990234375	-10996.6748046875
0.443	-0.0	-0.0	-0.0	-1.5377519130706787	128.19561767578125	-612.2677612304688	-12.805423736572266	-110.5320281982422	-709.8260498046875	-35.04738235473633	15.792531967163086	76.38314819335938	-0.0	-0.0	-0.0	74808.671875	-17832.341796875	-10498.0556640625
0.4435	-0.0	-0.0	-0.0	0.7498413324356079	126.46588134765624	-619.18701171875	-7.196312427520752	-110.75540161132812	-721.7581176757812	-35.604469299316406	16.01459503173828	74.81517028808594	-0.0	-0.0	-0.0	77054.59375	-19609.755859375	-9665.515625
0.444	-0.0	-0.0	-0.0	2.5712597370147705	123.1740951538086	-624.8148803710938	-1.6135823726654053	-110.01301574707033	-734.8803100585938	-35.294437408447266	15.95667552947998	74.94033813476562	-0.0	-0.0	-0.0	78312.234375	-21036.025390625	-9188.5107421875
0.4445	-0.0	-0.0	-0.0	4.5814595222473145	119.84475708007812	-632.5216674804688	3.62575101852417	-109.05162811279295	-746.1146240234375	-35.40959930419922	16.120609283447266	75.76764678955078	-0.0	-0.0	-0.0	80208.21875	-22642.46484375	-8831.9833984375
0.445	-0.0	-0.0	-0.0	7.761314392089844	116.46167755126952	-633.9194946289062	8.875056266784668	-109.87614440917967	-757.472900390625	-35.393577575683594	15.686874389648438	74.8155288696289	-0.0	-0.0	-0.0	81947.3203125	-24532.576171875	-8146.2421875
0.4455	-0.0	-0.0	-0.0	9.30337142944336	114.07737731933594	-636.3041381835938	13.253080368041992	-111.13406372070312	-768.334228515625	-35.288021087646484	16.02132797241211	76.19322204589844	-0.0	-0.0	-0.0	83387.296875	-25895.75	-7297.0625
0.446	-0.0	-0.0	-0.0	9.829127311706545	112.32960510253906	-632.3555908203125	15.52438735961914	-114.61946105957033	-776.3261108398438	-35.23749923706055	16.113758087158203	76.2554931640625	-0.0	-0.0	-0.0	84269.2734375	-26746.54296875	-6665.9921875
0.4465	-0.0	-0.0	-0.0	8.33528995513916	112.27235412597656	-630.906005859375	14.88754940032959	-119.316162109375	-776.3513793945312	-35.090843200683594	16.351219177246094	75.74256896972656	-0.0	-0.0	-0.0	83571.890625	-26536.66015625	-6044.66162109375
0.447	-0.0	-0.0	-0.0	5.489926338195801	113.12248992919922	-623.9336547851562	12.41698932647705	-123.9811553955078	-773.5948486328125	-35.54725646972656	16.0721378326416	74.78131866455078	-0.0	-0.0	-0.0	83488.1015625	-26414.48828125	-5410.8818359375
0.4475	-0.0	-0.0	-0.0	1.7021875381469729	114.84092712402344	-623.48974609375	10.338264465332031	-127.04041290283205	-773.30810546875	-35.214317321777344	16.170743942260742	75.70829010009766	-0.0	-0.0	-0.0	83477.5	-26340.173828125	-5156.79443359375
0.448	-0.0	-0.0	-0.0	-0.7955716848373413	116.48612213134766	-627.8902587890625	8.86216926574707	-127.57716369628906	-775.8777465820312	-35.140079498291016	16.25963020324707	74.97679901123047	-0.0	-0.0	-0.0	83520.7734375	-26627.060546875	-4866.67724609375
0.4485	-0.0	-0.0	-0.0	-1.38653826713562	118.19548797607422	-635.5323486328125	8.839082717895508	-126.29132843017578	-781.3726806640625	-35.352317810058594	16.104564666748047	77.4023208618164	-0.0	-0.0	-0.0	84719.6328125	-27283.119140625	-4720.49267578125
0.449	-0.0	-0.0	-0.0	0.0329371690750122	118.68102264404295	-645.5820922851562	8.975825309753418	-125.11140441894533	-788.6408081054688	-35.19786071777344	16.349987030029297	76.76300811767578	-0.0	-0.0	-0.0	85979.7578125	-27945.125	-4615.10546875
0.4495	-0.0	-0.0	-0.0	2.595435380935669	121.14485931396484	-652.7405395507812	9.443913459777832	-124.71022033691406	-797.3991088867188	-35.474361419677734	16.210895538330078	75.32706451416016	-0.0	-0.0	-0.0	87121.890625	-28737.00390625	-4380.2080078125
0.45	-0.0	-0.0	-0.0	6.853063106536865	123.7616729736328	-665.5196533203125	11.41981029510498	-125.9709930419922	-806.4136352539062	-35.55554962158203	16.194534301757812	76.85670471191406	-0.0	-0.0	-0.0	88800.5	-29572.119140625	-3804.572021484375
0.4505	-0.0	-0.0	-0.0	11.402342796325684	127.35076141357422	-677.9425659179688	14.467957496643066	-129.1263885498047	-817.4911499023438	-35.019561767578125	16.121004104614258	74.59422302246094	-0.0	-0.0	-0.0	90200.96875	-30891.9140625	-3145.306640625
0.451	-0.0	-0.0	-0.0	17.062759399414062	131.555908203125	-689.85595703125	17.8388671875	-132.8998260498047	-832.123291015625	-35.40918731689453	16.21099281311035	76.82425689697266	-0.0	-0.0	-0.0	91980.453125	-32018.474609375	-2372.6494140625
0.4515	-0.0	-0.0	-0.0	22.163497924804688	135.08045959472656	-700.6747436523438	20.500001907348636	-136.23980712890625	-845.8010864257812	-35.49861145019531	16.268007278442383	75.36116790771484	-0.0	-0.0	-0.0	93980.984375	-32729.923828125	-1840.3525390625
